<svg xmlns="http://www.w3.org/2000/svg" style="display: none;">
  <symbol id="icon-factory" viewBox="0 0 24 24">
    <title>Fabrik</title>
    <path d="M7.64,2.77c2.77,1.14,4.46,1.28,6.25-.29a9.14,9.14,0,0,1-4.28-.75C7,.82,5.51.68,4.13,1.79a9.54,9.54,0,0,1,3.5,1ZM2.1,2.54C4.28-.38,6.11-.52,9.93.79c3,1,4.18,1.05,5.74-.33a.5.5,0,0,1,.73.67c-2.88,3.94-5.13,4.21-9.14,2.56-2.46-1-3.34-1.15-4.49-.43a.5.5,0,0,1-.67-.72Zm5.4,15.3a.5.5,0,0,1-.5-.5.5.5,0,0,1,.5-.5H10a.5.5,0,0,1,.5.5.5.5,0,0,1-.5.5Zm0,3a.5.5,0,0,1-.5-.5.5.5,0,0,1,.5-.5H10a.5.5,0,0,1,.5.5.5.5,0,0,1-.5.5Zm5.5-3a.5.5,0,0,1-.5-.5.5.5,0,0,1,.5-.5h2.5a.5.5,0,0,1,.5.5.5.5,0,0,1-.5.5Zm0,3a.5.5,0,0,1-.5-.5.5.5,0,0,1,.5-.5h2.5a.5.5,0,0,1,.5.5.5.5,0,0,1-.5.5Zm5.5-3a.5.5,0,0,1-.5-.5.5.5,0,0,1,.5-.5H21a.5.5,0,0,1,.5.5.5.5,0,0,1-.5.5Zm0,3a.5.5,0,0,1-.5-.5.5.5,0,0,1,.5-.5H21a.5.5,0,0,1,.5.5.5.5,0,0,1-.5.5ZM1,22.84H23V12l-4.49,2.57a1,1,0,0,1-1.36-.37,1,1,0,0,1-.13-.5V12l-4.53,2.55a1,1,0,0,1-1.36-.38,1,1,0,0,1-.13-.49V12.08L7.13,14.59a1,1,0,0,1-1.38-.3A1,1,0,0,1,5.61,14L3.93,5.84H2.37L1,15.57v7.27Zm9.45-11.6a1,1,0,0,1,1.39.29,1,1,0,0,1,.16.55v1.63l4.53-2.55a1,1,0,0,1,1.36.38A1.05,1.05,0,0,1,18,12v1.69l4.48-2.57a1,1,0,0,1,1.37.37A1.06,1.06,0,0,1,24,12V22.84a1,1,0,0,1-1,1H1a1,1,0,0,1-1-1V15.57a.66.66,0,0,1,0-.14L1.38,5.69a1,1,0,0,1,1-.86H3.93a1,1,0,0,1,1,.8l1.68,8.12,3.86-2.51Z"/>
  </symbol>
  <symbol id="icon-pinboard" viewBox="0 0 24 24">
    <title>Pinnwand</title>
    <path d="M15.5,23V19.5A1.5,1.5,0,0,1,17,18h3.48c0-.16,0-.32,0-.48V6.5A.5.5,0,0,0,20,6H18.5a.5.5,0,0,1,0-1H20a1.5,1.5,0,0,1,1.5,1.5v11A6.48,6.48,0,0,1,15,24H4a1.5,1.5,0,0,1-1.5-1.5V6.5A1.5,1.5,0,0,1,4,5h9a.5.5,0,0,1,0,1H4a.5.5,0,0,0-.5.5v16A.5.5,0,0,0,4,23H15Zm1-.18A5.51,5.51,0,0,0,20.3,19H17a.5.5,0,0,0-.5.5ZM17.78,3a2,2,0,1,1,.7.7L12.35,9.85a.49.49,0,0,1-.7-.7L17.78,3ZM19.5,3a1,1,0,1,0-1-1A1,1,0,0,0,19.5,3ZM6,13a.5.5,0,0,1,0-1H17a.5.5,0,0,1,0,1Zm0,3a.5.5,0,0,1,0-1H17a.5.5,0,0,1,0,1Zm0,3a.5.5,0,0,1,0-1h5.5a.5.5,0,0,1,0,1Z"/>
  </symbol>
  <symbol id="icon-idcard" viewBox="0 0 24 24">
    <title>Ausweis</title>
    <path d="M15,6V7a1,1,0,0,1-1,1H10A1,1,0,0,1,9,7V6H1.5a.5.5,0,0,0-.5.5V9H23V6.5a.5.5,0,0,0-.5-.5Zm0-1h7.5A1.5,1.5,0,0,1,24,6.5v15A1.5,1.5,0,0,1,22.5,23H1.5A1.5,1.5,0,0,1,0,21.5V6.5A1.5,1.5,0,0,1,1.5,5H9V4a3,3,0,0,1,6,0Zm8,5H1V21.5a.5.5,0,0,0,.5.5h21a.5.5,0,0,0,.5-.5Zm-8,5a.5.5,0,0,1,0-1h6a.5.5,0,0,1,0,1Zm0,3a.5.5,0,0,1,0-1h3.5a.5.5,0,0,1,0,1Zm-1.62,1.73a.5.5,0,0,1-.14.69.51.51,0,0,1-.7-.15,2.53,2.53,0,0,0-1-.68c-.46-.21-.39-.18-2.17-.84-.8-.3-.86-1.93-.38-2.46a3.13,3.13,0,0,0,.79-2.44A1.68,1.68,0,0,0,8.22,12H8a1.7,1.7,0,0,0-1.28.53,1.82,1.82,0,0,0-.45,1.41,3,3,0,0,0,.79,2.35c.48.53.42,2.16-.38,2.46-1.82.68-1.71.63-2.17.84a2.53,2.53,0,0,0-1,.68.5.5,0,0,1-.69.15.49.49,0,0,1-.15-.69,3.24,3.24,0,0,1,1.47-1.05c.29-.13.62-.26,1-.42L5.71,18l.61-.22a3,3,0,0,0,0-.85,4,4,0,0,1-1-3A2.7,2.7,0,0,1,7.69,11H8a2.67,2.67,0,0,1,2,.85,2.59,2.59,0,0,1,.72,2A4,4,0,0,1,9.69,17a3.12,3.12,0,0,0,0,.86c1.82.67,1.73.64,2.23.86A3.24,3.24,0,0,1,13.38,19.73ZM14,7V4a2,2,0,0,0-4,0V7Z"/>
  </symbol>
  <symbol id="icon-read" viewBox="0 0 24 24">
    <title>Lesen</title>
    <path d="M12.13,24a.5.5,0,1,1-.26-1l8.26-2.3a.5.5,0,0,0,.37-.48V16.5a.5.5,0,0,1,1,0v3.74a1.5,1.5,0,0,1-1.1,1.44ZM20.5,13V10.82a.5.5,0,0,0-.5-.5.27.27,0,0,0-.13,0l-3.45.95-.06,0L12.5,12.38V23.5a.5.5,0,0,1-.5.5l-.13,0L3.6,21.68a1.5,1.5,0,0,1-1.1-1.44v-3.3A2,2,0,0,1,1.06,14.5,2,2,0,0,1,2.5,13.06V10.82A1.5,1.5,0,0,1,4,9.32a1.33,1.33,0,0,1,.4,0l3.17.88A6.56,6.56,0,0,1,12,8a6.55,6.55,0,0,1,4.39,2.24l3.17-.88a1.51,1.51,0,0,1,1.85,1,1.84,1.84,0,0,1,.05.41v2.24A2,2,0,0,1,21,17H20a1,1,0,0,1-1-1V14a1,1,0,0,1,1-1Zm-17,4v3.24a.5.5,0,0,0,.37.48l7.63,2.12V12.38L7.64,11.31h0l-3.46-1a.49.49,0,0,0-.61.34.68.68,0,0,0,0,.14V13H4a1,1,0,0,1,1,1v2a1,1,0,0,1-1,1Zm11.85-6.45A5.61,5.61,0,0,0,12,9a5.58,5.58,0,0,0-3.38,1.55l3.34.93ZM12,7.5a3.75,3.75,0,1,1,3.75-3.75A3.75,3.75,0,0,1,12,7.5Zm0-1A2.75,2.75,0,1,0,9.25,3.75,2.75,2.75,0,0,0,12,6.5Zm5.86,6.32a.5.5,0,1,1,.28,1l-3.64,1.1v1.45l3.36-1a.5.5,0,1,1,.28,1h0l-3.35,1a1,1,0,0,1-1.25-.67.92.92,0,0,1,0-.29V14.88a1,1,0,0,1,.71-1ZM3,16H4V14H3a1,1,0,0,0,0,2Zm18,0a1,1,0,0,0,0-2H20v2Z"/>
  </symbol>
  <symbol id="icon-officewoman" viewBox="0 0 24 24">
    <title>Frauen und Beruf</title>
    <path d="M13,20.19l2.35-3.48A26.11,26.11,0,0,0,12,16.5a25.81,25.81,0,0,0-3.3.21l2.35,3.48,0,.06L12,21.61l.92-1.36Zm4.17-3.14,1.39,2.45a1,1,0,0,1-.37,1.37,1.13,1.13,0,0,1-.5.13h-4l-1.2,1.78a.51.51,0,0,1-.7.14.57.57,0,0,1-.13-.14L10.39,21h-4a1,1,0,0,1-1-1,1,1,0,0,1,.13-.5l1.39-2.45a12.79,12.79,0,0,0-4.8,2.16,1.48,1.48,0,0,0-.58,1.18V23.5a.5.5,0,0,1-1,0V20.4a2.44,2.44,0,0,1,1-2C3.74,16.69,7.19,15.5,12,15.5s8.27,1.19,10.53,2.92a2.46,2.46,0,0,1,1,2V23.5a.5.5,0,0,1-1,0V20.39a1.5,1.5,0,0,0-.57-1.18,12.77,12.77,0,0,0-4.81-2.16ZM14.29,20h3.35l-1.53-2.7ZM9.71,20,7.89,17.3,6.36,20ZM5.5,7V6.5a6.5,6.5,0,0,1,13,0V7c0,2.37.74,4.86,2.07,5.74a1,1,0,0,1,.49.9,1,1,0,0,1-.57.87,5,5,0,0,1-3.09.33.51.51,0,0,1-.4-.59.51.51,0,0,1,.59-.4h0a4.07,4.07,0,0,0,2.46-.25h0a5.4,5.4,0,0,1-1.95-2.82,6.5,6.5,0,0,1-12.18,0,5.5,5.5,0,0,1-2,2.83h0a4,4,0,0,0,2.47.26.49.49,0,0,1,.59.38.5.5,0,0,1-.38.6h0a5,5,0,0,1-3.13-.35,1,1,0,0,1-.42-1.35,1,1,0,0,1,.35-.39C4.76,11.86,5.5,9.37,5.5,7Zm12,0a8.41,8.41,0,0,1-3.37-.42A5.57,5.57,0,0,1,12,5.24,5.71,5.71,0,0,1,9.87,6.6,8.61,8.61,0,0,1,6.5,7V8.5a5.5,5.5,0,0,0,11,0Zm-11-1a7.64,7.64,0,0,0,3-.36,4.76,4.76,0,0,0,2.09-1.47.5.5,0,0,1,.7-.07l.07.07a4.67,4.67,0,0,0,2.08,1.47,7.64,7.64,0,0,0,3,.36,5.5,5.5,0,0,0-11,0ZM13.2,10.6a.5.5,0,1,1,.6.8,3,3,0,0,1-3.6,0,.5.5,0,1,1,.6-.8A2,2,0,0,0,13.2,10.6Zm1.55-2.1A.75.75,0,1,1,14,7.75.76.76,0,0,1,14.75,8.5Zm-4,0A.75.75,0,1,1,10,7.75.76.76,0,0,1,10.75,8.5Z"/>
  </symbol>
  <symbol id="icon-graduatewoman" viewBox="0 0 24 24">
    <title>Frauen und Bildung</title>
    <path d="M5.91,12.76a5.5,5.5,0,0,1-2,2.83h0a4,4,0,0,0,2.47.25.5.5,0,0,1,.59.39.49.49,0,0,1-.38.59,5,5,0,0,1-3.13-.34,1,1,0,0,1-.42-1.35,1,1,0,0,1,.35-.39C4.76,13.85,5.5,11.35,5.5,9V4.52l-3-.68V8.35a7.66,7.66,0,0,1,1,4.16A.5.5,0,0,1,3,13H1a.5.5,0,0,1-.5-.48,7.66,7.66,0,0,1,1-4.16v-5a.75.75,0,0,1,.24-1A.67.67,0,0,1,2,2.25l9.7-2.2a1.47,1.47,0,0,1,.66,0L22,2.26a.75.75,0,0,1,.57.89.77.77,0,0,1-.57.57l-3.54.8v3h0V9c0,2.36.74,4.86,2.07,5.74a1,1,0,0,1,.49.89,1,1,0,0,1-.57.88,5,5,0,0,1-3.09.33.51.51,0,0,1-.37-.61.52.52,0,0,1,.58-.37,4,4,0,0,0,2.45-.25h0a5.4,5.4,0,0,1-1.95-2.82,6.5,6.5,0,0,1-12.18,0Zm11.42,6.33-5,4.76a.51.51,0,0,1-.69,0l-5-4.76A12.62,12.62,0,0,0,2.07,21.2a1.5,1.5,0,0,0-.57,1.18v1.11a.5.5,0,0,1-1,0v-1.1a2.47,2.47,0,0,1,1-2C3.73,18.68,7.19,17.49,12,17.49s8.28,1.19,10.53,2.92a2.46,2.46,0,0,1,1,2v1.11a.5.5,0,0,1-1,0V22.38a1.5,1.5,0,0,0-.57-1.18A12.44,12.44,0,0,0,17.33,19.09Zm-1.18-.25A23.1,23.1,0,0,0,12,18.49a22.8,22.8,0,0,0-4.15.35l4.15,4ZM6.5,7.19a6,6,0,0,0,.94.31A18.06,18.06,0,0,0,12,8a18.06,18.06,0,0,0,4.56-.49,6,6,0,0,0,.94-.31V4.75L12.34,5.92a1.52,1.52,0,0,1-.67,0L6.5,4.75Zm0,1.07v2.23a5.5,5.5,0,0,0,11,0V8.26c-.19.07-.42.14-.68.21A19.26,19.26,0,0,1,12,9a19.26,19.26,0,0,1-4.82-.52c-.23-.06-.45-.13-.68-.21ZM17.88,3.64h0L20.75,3,12.11,1a.81.81,0,0,0-.22,0h0L3.27,3l8.62,2a.45.45,0,0,0,.23,0Zm-4.68,9a.5.5,0,1,1,.6.8,3,3,0,0,1-3.6,0,.5.5,0,1,1,.6-.8A2,2,0,0,0,13.2,12.59Zm1.55-2.1A.75.75,0,1,1,14,9.74.76.76,0,0,1,14.75,10.49Zm-4,0A.75.75,0,1,1,10,9.74.76.76,0,0,1,10.75,10.49ZM2,9.6A6.78,6.78,0,0,0,1.49,12h1A6.78,6.78,0,0,0,2,9.6Z"/>
  </symbol>
  <symbol id="icon-passport" viewBox="0 0 24 24">
    <title>Reisepass</title>
    <path d="M14,16V12H10v4Zm1,0h2.13a5.55,5.55,0,0,0,.37-2,5.31,5.31,0,0,0-.38-2H15ZM14,8.88a5.51,5.51,0,0,0-2-.38,5.31,5.31,0,0,0-2,.38V11h4Zm1,.51V11h1.61A5.61,5.61,0,0,0,15,9.39Zm-.3-1.3a6.5,6.5,0,1,1-5.4,0A6.51,6.51,0,0,1,14.7,8.09Zm-.7,11V17H10v2.12a5.45,5.45,0,0,0,4,0Zm1-.51A5.61,5.61,0,0,0,16.61,17H15ZM9,16V12H6.88a5.52,5.52,0,0,0,0,4ZM9,9.39A5.61,5.61,0,0,0,7.39,11H9V9.39Zm0,9.22V17H7.39A5.61,5.61,0,0,0,9,18.61ZM18,4h1V1H5.5a1.5,1.5,0,0,0,0,3H17V3H5.5a.5.5,0,0,1,0-1h12a.5.5,0,0,1,.5.5Zm2,0a1,1,0,0,1,1,1V23a1,1,0,0,1-1,1H5.5A2.5,2.5,0,0,1,3,21.5V2.5A2.5,2.5,0,0,1,5.5,0H19a1,1,0,0,1,1,1ZM4,21.5A1.5,1.5,0,0,0,5.5,23H20V5H5.5A2.46,2.46,0,0,1,4,4.5Z"/>
  </symbol>
  <symbol id="icon-medical" viewBox="0 0 24 24">
    <title>Medizin</title>
    <path d="M15,6.8l5-2.9a1,1,0,0,1,1.36.37l2,3.46A1,1,0,0,1,23,9.1L18,12l5,2.9a1,1,0,0,1,.37,1.37l-2,3.46a1,1,0,0,1-.61.47,1,1,0,0,1-.75-.1l-5-2.91V23a1,1,0,0,1-1,1H10a1,1,0,0,1-1-1V17.19L4,20.1a1,1,0,0,1-1.36-.37l-2-3.46A1,1,0,0,1,1,14.9L6,12,1,9.1A1,1,0,0,1,.61,7.73l2-3.46A1,1,0,0,1,4,3.9L9,6.8V1a1,1,0,0,1,1-1h4a1,1,0,0,1,1,1Zm7.52,9-5.77-3.34a.49.49,0,0,1-.18-.68.39.39,0,0,1,.18-.18l5.77-3.34-2-3.46L14.75,8.1a.49.49,0,0,1-.68-.18A.45.45,0,0,1,14,7.67V1H10V7.67a.5.5,0,0,1-.5.5.55.55,0,0,1-.25-.07L3.47,4.77l-2,3.46,5.78,3.34a.49.49,0,0,1,.18.68.39.39,0,0,1-.18.18L1.47,15.77l2,3.46L9.25,15.9a.49.49,0,0,1,.68.18.45.45,0,0,1,.07.25V23h4V16.33a.5.5,0,0,1,.5-.5.45.45,0,0,1,.25.07l5.77,3.33Z"/>
  </symbol>
  <symbol id="icon-care" viewBox="0 0 24 24">
    <title>Helfen</title>
    <path d="M11,18.5H8a.5.5,0,0,1,0-1h2.45A2.5,2.5,0,0,0,8,15.5H1.5v5h18a2.5,2.5,0,0,0-2.45-2Zm-9.5-4H8a3.51,3.51,0,0,1,3.47,3H17A3.5,3.5,0,0,1,20.5,21a.5.5,0,0,1-.5.5H1.5V23a.5.5,0,0,1-1,0V13a.5.5,0,0,1,1,0ZM21.76,5.81a2.53,2.53,0,0,0,0-3.57,2.62,2.62,0,0,0-1.38-.71,2.54,2.54,0,0,0-2.19.71l-.84.84a.5.5,0,0,1-.7,0h0l-.84-.84a2.52,2.52,0,0,0-3.64,3.5l.08.08,4.75,5,4.76-5Zm-4.76,6a1,1,0,0,1-.71-.31l-4.76-5a3.53,3.53,0,0,1,0-5,3.45,3.45,0,0,1,1.92-1,3.5,3.5,0,0,1,3.06,1L17,2l.48-.48a3.52,3.52,0,0,1,5,5l-4.76,5a1,1,0,0,1-.71.31Z"/>
  </symbol>
  <symbol id="icon-house" viewBox="0 0 24 24">
    <title>Haus</title>
    <path d="M3,13.5a.5.5,0,0,1,1,0v9a.5.5,0,0,0,.5.5H9V19a3,3,0,0,1,6,0v4h4.5a.5.5,0,0,0,.5-.5V14a.5.5,0,0,1,1,0v8.5A1.5,1.5,0,0,1,19.5,24H15a1,1,0,0,1-1-1V19a2,2,0,0,0-4,0v4a1,1,0,0,1-1,1H4.5A1.5,1.5,0,0,1,3,22.5ZM12,2.21.85,13.35a.48.48,0,0,1-.7,0,.48.48,0,0,1,0-.7h0l11.5-11.5a.48.48,0,0,1,.7,0h0l11.5,11.5a.49.49,0,1,1-.7.7Z"/>
  </symbol>
  <symbol id="icon-callcenter" viewBox="0 0 24 24">
    <title>Callcenter</title>
    <path d="M10.48,17.42a8.7,8.7,0,0,1-4.74,2.31A1.75,1.75,0,0,1,4.06,21h-.5a1.75,1.75,0,0,1,0-3.5h.5a1.75,1.75,0,0,1,1.67,1.23,7.58,7.58,0,0,0,3.88-1.89,5,5,0,0,1,1.2-8.42V2.21C6.58,3,4.88,5.83,2.54,13.31l-.11.33c-.18.58-.3,1-.43,1.36H4.31a.5.5,0,0,1,.5.5V16a.5.5,0,0,1-1,0H2a1,1,0,0,1-1-1,1.06,1.06,0,0,1,.05-.31c.12-.38.25-.77.43-1.35l.1-.33C2.84,9,3.51,7.24,4.69,5.42a9,9,0,0,1,6.15-4.23A1.51,1.51,0,0,1,12.31,0h1a1.51,1.51,0,0,1,1.46,1.14,10.6,10.6,0,0,1,9,10.11,10.22,10.22,0,0,1-4,8.11V23.5a.5.5,0,0,1-1,0V19.11a.49.49,0,0,1,.21-.4,9.24,9.24,0,0,0,3.79-7.46,9.6,9.6,0,0,0-8-9.09V8.42a5,5,0,0,1-4,9.16A3.18,3.18,0,0,1,10.48,17.42Zm.76-.74a4,4,0,0,0,3.28-7.3,1.49,1.49,0,0,1-1.21.62h-1a1.47,1.47,0,0,1-1.21-.62,4,4,0,0,0-.75,6.78,11.13,11.13,0,0,0,1.28-1.54,2,2,0,1,1,1,.37A12.82,12.82,0,0,1,11.24,16.68ZM12.53,14a1,1,0,1,0-.68-1.24A1,1,0,0,0,12.53,14Zm-.7-5.32a.5.5,0,0,0,.48.36h1a.5.5,0,0,0,.5-.5v-7a.5.5,0,0,0-.5-.5h-1a.5.5,0,0,0-.5.5v7A.59.59,0,0,0,11.83,8.64ZM7.31,22a3.78,3.78,0,0,1-1.06-.16.5.5,0,1,1,.3-1h0a2.46,2.46,0,0,0,.76.12h2a.5.5,0,0,1,.5.5v2a.5.5,0,0,1-1,0V22Zm-4.5-2.75a.76.76,0,0,0,.75.75h.5a.75.75,0,0,0,0-1.5h-.5A.76.76,0,0,0,2.81,19.25Z"/>
  </symbol>
  <symbol id="icon-familyhome" viewBox="0 0 24 24">
    <title>Familienzuhause</title>
    <path d="M3.44,13a2.75,2.75,0,1,1,.12,0A3.5,3.5,0,0,1,7,16.5V19a.5.5,0,0,1-.5.5h-1L5,23.56a.51.51,0,0,1-.5.44h-2a.51.51,0,0,1-.5-.44L1.55,19.5H.5A.5.5,0,0,1,0,19V16.5A3.5,3.5,0,0,1,3.44,13Zm17,0a2.75,2.75,0,1,1,.12,0A3.5,3.5,0,0,1,24,16.5V19a.5.5,0,0,1-.5.5H22.45L22,23.56a.51.51,0,0,1-.5.44h-2a.51.51,0,0,1-.5-.44l-.45-4.06H17.5A.5.5,0,0,1,17,19V16.5A3.5,3.5,0,0,1,20.44,13Zm.06-1a1.75,1.75,0,1,0-1.75-1.75A1.75,1.75,0,0,0,20.5,12ZM23,18.5v-2a2.5,2.5,0,0,0-5,0v2h1a.51.51,0,0,1,.5.44L20,23h1.1l.45-4.06a.51.51,0,0,1,.5-.44ZM3.5,12a1.75,1.75,0,1,0-1.75-1.75A1.75,1.75,0,0,0,3.5,12ZM6,18.5v-2a2.5,2.5,0,0,0-5,0v2H2a.51.51,0,0,1,.5.44L3,23h1.1l.45-4.06A.51.51,0,0,1,5,18.5Zm6-7a3.25,3.25,0,1,1,3.25-3.25A3.26,3.26,0,0,1,12,11.5Zm0-1A2.25,2.25,0,0,0,12,6h0a2.25,2.25,0,0,0,0,4.5ZM8.5,19a.5.5,0,0,1-.5-.5v-3a4,4,0,0,1,8,0v3a.5.5,0,0,1-.5.5H14.38L14,23.54a.5.5,0,0,1-.5.46h-3a.5.5,0,0,1-.5-.46L9.62,19ZM15,15.5a3,3,0,0,0-6,0V18h1.08a.5.5,0,0,1,.5.46L11,23H13l.38-4.54a.5.5,0,0,1,.5-.46H15ZM.74,6.94a.51.51,0,0,1-.69-.18.5.5,0,0,1,.18-.68l0,0,11-5.89a1.49,1.49,0,0,1,1.39,0l11,5.89a.5.5,0,0,1,.18.68.49.49,0,0,1-.65.2l-11-5.88a.5.5,0,0,0-.46,0Z"/>
  </symbol>
  <symbol id="icon-grandpa" viewBox="0 0 24 24">
    <title>Großvater</title>
    <path d="M15.5,8.78v5.47a.5.5,0,0,1-1,0V8.78a4,4,0,0,0-3.5,4v2.5h1a.5.5,0,0,1,.5.45l.7,7.05h3.6l.7-7a.5.5,0,0,1,.5-.45h1v-2.5A4,4,0,0,0,15.5,8.78ZM15,7.25a3.5,3.5,0,1,1,3.5-3.5A3.5,3.5,0,0,1,15,7.25Zm0-1a2.5,2.5,0,1,0-2.5-2.5A2.5,2.5,0,0,0,15,6.25ZM17.75,23.3a.5.5,0,0,1-.5.45h-4.5a.5.5,0,0,1-.5-.45l-.7-7H10.5a.5.5,0,0,1-.5-.5v-3a5,5,0,0,1,10,0v3a.5.5,0,0,1-.5.5H18.45ZM5,15a.5.5,0,0,1-1,0v-.75a2,2,0,0,1,4,0v9a.5.5,0,0,1-1,0v-9a1,1,0,0,0-2,0Z"/>
  </symbol>
  <symbol id="icon-parenting" viewBox="0 0 24 24">
    <title>Erziehung</title>
    <path d="M18.5,11a2.75,2.75,0,1,1,2.75-2.75A2.75,2.75,0,0,1,18.5,11Zm0-1a1.75,1.75,0,1,0-1.75-1.75A1.75,1.75,0,0,0,18.5,10ZM7.78,7.68a.51.51,0,0,1,.32-.63.49.49,0,0,1,.63.32.06.06,0,0,1,0,0,1.28,1.28,0,0,0,1.57.87,1.26,1.26,0,0,0,.87-1.56L9.53.63A.5.5,0,0,1,9.89,0a.49.49,0,0,1,.61.35l1.65,6.08A2.27,2.27,0,1,1,7.78,7.68ZM7,22a2,2,0,0,1-4,0,.5.5,0,0,1,1,0,1,1,0,0,0,2,0V14.5a.5.5,0,0,1,.5-.5H9.36L6,.62A.5.5,0,0,1,6.39,0,.5.5,0,0,1,7,.38l3.35,13.38A1,1,0,0,1,9.6,15l-.24,0H7ZM3,22a.5.5,0,0,1,1,0,2,2,0,0,1-4,0V14.5A.5.5,0,0,1,.5,14a.5.5,0,0,1,.5.5V22a1,1,0,0,0,2,0Zm0-7.5a.5.5,0,0,1,1,0V22a.5.5,0,0,1-1,0ZM17.25,24a1.75,1.75,0,0,1-1.75-1.75V16.14a.5.5,0,0,0-.12-.33L11.92,12A1.75,1.75,0,0,1,12,9.48,1.84,1.84,0,0,1,12.84,9a1.72,1.72,0,0,1,1.64.53L17,11.86a.48.48,0,0,0,.34.14H21.5A2.5,2.5,0,0,1,24,14.5v2.75a1.75,1.75,0,0,1-2.5,1.58v3.42A1.75,1.75,0,0,1,19.75,24a1.77,1.77,0,0,1-1.25-.52A1.76,1.76,0,0,1,17.25,24Zm.08-11a1.56,1.56,0,0,1-1-.4l-2.54-2.33a.74.74,0,0,0-1-.09.75.75,0,0,0-.09,1.06l0,0,3.46,3.86a1.49,1.49,0,0,1,.38,1v6.11a.75.75,0,0,0,1.5,0,.5.5,0,1,1,1,0,.75.75,0,0,0,1.5,0v-5a.5.5,0,1,1,1,0,.75.75,0,0,0,1.5,0V14.5A1.5,1.5,0,0,0,21.5,13ZM19,22a.5.5,0,0,1-1,0V18a.5.5,0,0,1,1,0Z"/>
  </symbol>
  <symbol id="icon-family" viewBox="0 0 24 24">
    <title>Familie mit Kind</title>
    <path d="M19.5,8.75A3.5,3.5,0,1,1,23,5.25,3.5,3.5,0,0,1,19.5,8.75Zm0-1A2.5,2.5,0,1,0,17,5.25,2.5,2.5,0,0,0,19.5,7.75Zm2.69,8.5-.69,5.56a.51.51,0,0,1-.5.44H18a.51.51,0,0,1-.5-.44l-.18-1.5a.5.5,0,0,1,.44-.55.51.51,0,0,1,.55.43l.13,1.06h2.12l.69-5.56a.51.51,0,0,1,.5-.44h1V13.5a3.25,3.25,0,0,0-5.2-2.6.5.5,0,0,1-.6-.8,4.25,4.25,0,0,1,6.8,3.4v2.25a.5.5,0,0,1-.5.5ZM4.5,8.75A3.5,3.5,0,1,1,8,5.25,3.5,3.5,0,0,1,4.5,8.75Zm0-1A2.5,2.5,0,1,0,2,5.25,2.5,2.5,0,0,0,4.5,7.75ZM5.69,20.19a.5.5,0,0,1,1,.12l-.18,1.5a.51.51,0,0,1-.5.44H3a.51.51,0,0,1-.5-.44l-.69-5.56H.75a.5.5,0,0,1-.5-.5V13.5a4.25,4.25,0,0,1,6.8-3.4.5.5,0,0,1-.6.8,3.25,3.25,0,0,0-5.2,2.6v1.75h1a.51.51,0,0,1,.5.44l.69,5.56H5.56l.13-1.06ZM12,11.75A2.75,2.75,0,1,1,14.75,9,2.75,2.75,0,0,1,12,11.75Zm0-1A1.75,1.75,0,1,0,10.25,9,1.75,1.75,0,0,0,12,10.75Zm-3.75,7a.5.5,0,0,1-.5-.5V16.5A4.25,4.25,0,0,1,12,12.25a.5.5,0,0,1,0,1A3.26,3.26,0,0,0,8.75,16.5v.25h1a.5.5,0,0,1,.49.42l.68,4.08H12a.5.5,0,0,1,0,1H10.5a.5.5,0,0,1-.49-.42l-.68-4.08Zm7-1V16.5A3.26,3.26,0,0,0,12,13.25a.5.5,0,0,1,0-1,4.25,4.25,0,0,1,4.25,4.25h0v.75a.5.5,0,0,1-.5.5H14.67L14,21.83a.5.5,0,0,1-.49.42H12a.5.5,0,0,1,0-1h1.08l.68-4.08a.5.5,0,0,1,.49-.42Z"/>
  </symbol>
  <symbol id="icon-engagement" viewBox="0 0 24 24">
    <title>Verlobung</title>
    <path d="M21.74,3.92a1,1,0,0,1-.24,1.21l-8.84,7.62a1,1,0,0,1-1.31,0L2.5,5.13a1,1,0,0,1-.24-1.21L4,.55A1,1,0,0,1,4.87,0H19.13a1,1,0,0,1,.9.55ZM19.13,1H4.87L3.15,4.38,12,12l8.85-7.62ZM2.67,5a.5.5,0,0,1,0-1H21.33a.5.5,0,0,1,0,1Zm5.89-.5,3.89,7.78a.5.5,0,0,1-.9.44l-4-8a.49.49,0,0,1,0-.44l2-4a.5.5,0,0,1,.68-.22.5.5,0,0,1,.22.66L8.56,4.5Zm5-3.78a.5.5,0,0,1,.9-.44l2,4a.49.49,0,0,1,0,.44l-4,8a.5.5,0,0,1-.68.22.5.5,0,0,1-.22-.66L15.44,4.5ZM24,23.43a.51.51,0,0,1-.41.58A.51.51,0,0,1,23,23.6v0a11.11,11.11,0,0,0-22,0A.51.51,0,0,1,.44,24,.5.5,0,0,1,0,23.46v0a12.11,12.11,0,0,1,24,0Zm-3.21,0a.5.5,0,1,1-1,.19,8,8,0,0,0-15.62,0,.5.5,0,1,1-1-.19,9,9,0,0,1,17.58,0Z"/>
  </symbol>
  <symbol id="icon-earth" viewBox="0 0 24 24">
    <title>Erde</title>
    <path d="M20.48,20.45A12,12,0,0,1,12,24,12.17,12.17,0,0,1,0,11.73,11.74,11.74,0,0,1,11.48,0H12A11.94,11.94,0,0,1,24,11.86v.08A12,12,0,0,1,20.48,20.45ZM23,11.94A10.93,10.93,0,0,0,12.08,1h-.56A10.75,10.75,0,0,0,1,11.74,11.17,11.17,0,0,0,12,23a11,11,0,0,0,11-11ZM7.44,17a17.68,17.68,0,0,1-.93-5H.5a.5.5,0,0,1-.5-.5A.51.51,0,0,1,.5,11h6a15.59,15.59,0,0,1,1-5H2.39a.5.5,0,0,1-.5-.5.5.5,0,0,1,.5-.5H7.9A17.91,17.91,0,0,1,11.14.16a.5.5,0,0,1,.7,0A.53.53,0,0,1,12,.5a.5.5,0,0,1,.5-.5.5.5,0,0,1,.36.16A17.91,17.91,0,0,1,16.11,5h5.41a.5.5,0,0,1,.5.5.5.5,0,0,1-.5.5h-5a15.63,15.63,0,0,1,1,5h6a.5.5,0,0,1,.5.5.5.5,0,0,1-.5.5h-6a17.14,17.14,0,0,1-.93,5h5.52a.5.5,0,0,1,.5.5.5.5,0,0,1-.5.5H16.2a25.09,25.09,0,0,1-3.29,5.8.51.51,0,0,1-.7.1.49.49,0,0,1-.2-.4.51.51,0,0,1-.51.5.47.47,0,0,1-.39-.2A24.58,24.58,0,0,1,7.81,18H2a.5.5,0,0,1-.5-.5A.5.5,0,0,1,2,17ZM8.5,17h7a16.94,16.94,0,0,0,1-5h-9A16.6,16.6,0,0,0,8.5,17Zm.39,1a23.63,23.63,0,0,0,3,5.2.63.63,0,0,1,.1.29.46.46,0,0,1,.1-.29,24,24,0,0,0,3-5.2ZM7.51,11h9a14.61,14.61,0,0,0-1.05-5H8.56A14.61,14.61,0,0,0,7.51,11ZM9,5h6A17.61,17.61,0,0,0,12.14.84.52.52,0,0,1,12,.5a.5.5,0,0,1-.13.34A17.61,17.61,0,0,0,9,5Z"/>
  </symbol>
  <symbol id="icon-death" viewBox="0 0 24 24">
    <title>Tod</title>
    <path d="M12.5,8H16a.5.5,0,0,1,0,1H12.5v9.5a.5.5,0,0,1-1,0V9H8A.5.5,0,0,1,8,8h3.5V4.5a.5.5,0,0,1,1,0ZM3.07,7.84A1,1,0,0,1,3.23,7L7.94.42A1,1,0,0,1,8.76,0h6.48a1,1,0,0,1,.82.42L20.77,7a1,1,0,0,1,.16.82l-3.85,15.4a1,1,0,0,1-1,.76H7.89a1,1,0,0,1-1-.76L3.07,7.84ZM16.11,23,20,7.6,15.24,1H8.76L4,7.6,7.89,23Z"/>
  </symbol>
  <symbol id="icon-construction" viewBox="0 0 24 24">
    <title>Bau</title>
    <path d="M1,17.93H4v-4H1Zm-1,1V3.43a.5.5,0,0,1,.5-.5h11a.5.5,0,0,1,.5.5v4.5h1a.5.5,0,0,1,.5.5.5.5,0,0,1-.5.5H9v4h1a.5.5,0,0,1,.5.5.5.5,0,0,1-.5.5H5v4H8.5a.5.5,0,0,1,.5.5v4.5h7v-4a.5.5,0,0,1,1,0v4h6v-4H18.52a.5.5,0,0,1-.5-.5.5.5,0,0,1,.5-.5h5a.5.5,0,0,1,.5.5v5a.5.5,0,0,1-.5.5H.5a.5.5,0,0,1-.5-.5ZM18.53,11.1l1-.86L16.71,7a2,2,0,0,1,0-2.83.6.6,0,0,0,.08-.08L20.68.56a2,2,0,0,1,2.64,3L19.45,7.08a2.07,2.07,0,0,1-.94.46l1.76,2a1,1,0,0,1-.1,1.4l-.93.83,1.11,1.11a2,2,0,0,1-.64,3.35l-8.53,3.31a.69.69,0,0,1-.93-.93l3.31-8.52a2,2,0,0,1,3.32-.68Zm-.75.66-1.63-1.64A1,1,0,0,0,14.8,10a.85.85,0,0,0-.29.43v0l-3.09,7.94,8-3.1A.92.92,0,0,0,20,14.6a1,1,0,0,0-.35-.95l-1.19-1.18L16.8,14a.51.51,0,0,1-.71,0,.51.51,0,0,1,.05-.71l1.64-1.45Zm-.34-5.45a1,1,0,0,0,1.34,0l3.86-3.49a1,1,0,0,0,.07-1.39,1,1,0,0,0-1.37-.13L17.47,4.83a1,1,0,0,0-.12,1.38l0,0,.05,0ZM8,8.93H1v4H8Zm-3-1h6v-4H5Zm-1,0v-4H1v4Zm4,15v-4H1v4Z"/>
  </symbol>
  <symbol id="icon-certificate" viewBox="0 0 24 24">
    <title>Zertifikat</title>
    <path d="M5.25,4.38a.87.87,0,1,1-.87.87.87.87,0,0,1,.87-.87.48.48,0,0,0-.5.49.47.47,0,0,0,.15.36.5.5,0,0,0,.7,0,.5.5,0,0,0-.35-.85Zm-3,4.83a5,5,0,1,1,7-.91,4.9,4.9,0,0,1-.91.91l.76,5.56a1.26,1.26,0,0,1-1,1.46A1.25,1.25,0,0,1,7,15.88l-1.7-1.69-1.7,1.69a1.25,1.25,0,0,1-2.11-1.09ZM3,8.56A4,4,0,1,0,1.25,5.25,4,4,0,0,0,3,8.56Zm.13,1.22L2.42,15a.26.26,0,0,0,.43.23l2.05-2a.48.48,0,0,1,.7,0l2.05,2a.25.25,0,0,0,.42-.24l-.7-5.15a5,5,0,0,1-4.24,0ZM17.78,1.25H11.25a.5.5,0,0,1-.5-.5.5.5,0,0,1,.5-.5h9a3.5,3.5,0,0,1,3.5,3.5v3a.5.5,0,0,1-.5.5h-5.5V21A2.75,2.75,0,0,1,15,23.75H4.5a.5.5,0,1,1,0-1A1.75,1.75,0,0,0,6.25,21V18.75a.5.5,0,0,1,1,0V21a2.75,2.75,0,0,1-.63,1.75H15A1.75,1.75,0,0,0,16.75,21V3.91A3.89,3.89,0,0,1,17.78,1.25Zm5,5V3.75a2.5,2.5,0,0,0-2.5-2.5,2.21,2.21,0,0,0-2,1.12,3.39,3.39,0,0,0-.47,1.54V6.25Z"/>
  </symbol>
  <symbol id="icon-cat" viewBox="0 0 24 24">
    <title>Katze</title>
    <path d="M19.89,9.24a.75.75,0,1,1-.75-.75A.75.75,0,0,1,19.89,9.24Zm-2.13,10-.21.87a1.51,1.51,0,0,1-1.46,1.14A1.26,1.26,0,0,1,14.84,20h0c0-3.4-.29-3.74-4-3.74h-1l.36,3.82a1.07,1.07,0,0,1-2,.54L6.54,16.92a5.45,5.45,0,0,0-2.26,2.34c-.08.15-.57,1-.72,1.24a1.39,1.39,0,0,1-1.64.67,1.09,1.09,0,0,1-.7-1.49C2.32,17,3.28,14.49,4,12.55A4.56,4.56,0,0,1,1.87,8.24a5.57,5.57,0,0,1,3-5.19A2.58,2.58,0,0,1,8.69,5.14,1.36,1.36,0,0,1,7.8,6.66,1.14,1.14,0,0,1,6.26,6c-.11-.31-.15-.33-.28-.27a2.15,2.15,0,0,0-.81,1.07A2.68,2.68,0,0,0,6,10.24H13.2a3.52,3.52,0,0,0,3.24-2.15L17.72,5A.67.67,0,0,1,19,5l.75,1.83.63.39.64.38a8,8,0,0,1,1,.65,2.42,2.42,0,0,1,.87,2.16,1.82,1.82,0,0,1-1.81,1.82h-.88l-1.26,2.52c1.82,4.59,1.81,4.55,2,5,.62,1.42-1.41,2.14-2.25.87Zm.33-1.31,1.4,2.1c.24.36.57.25.5.1-.17-.38-.16-.37-1.51-3.75l-.39,1.55Zm-.19-3.33v-.08l1.5-3a.5.5,0,0,1,.45-.27h1.19a.81.81,0,0,0,.81-.81h0c0-.77-.11-1.06-.51-1.39s-2.27-1.44-2.27-1.44a.49.49,0,0,1-.18-.22l-.54-1.32-1,2.42a4.5,4.5,0,0,1-4.16,2.77H5.87a.48.48,0,0,1-.26-.07A3.65,3.65,0,0,1,4.25,6.39a3.06,3.06,0,0,1,1.3-1.58c.71-.34,1.37,0,1.66.86,0,.08.1.11.24,0a.37.37,0,0,0,.26-.42A1.6,1.6,0,0,0,5.26,4,4.62,4.62,0,0,0,2.87,8.29a3.58,3.58,0,0,0,2,3.59.51.51,0,0,1,.25.62c-.73,2-1.75,4.63-2.93,7.55,0,.1,0,.14.09.18s.33,0,.46-.24l.72-1.24c1.54-2.6,3.16-3.51,7.45-3.51s5,.8,5,4.74a.26.26,0,0,0,.25.26.51.51,0,0,0,.49-.38l1.31-5.24Zm-9,1.73a8.74,8.74,0,0,0-1.43.25L9.13,20.2a.08.08,0,0,0,.1,0,.07.07,0,0,0,0-.08l-.36-3.84Z"/>
  </symbol>
  <symbol id="icon-car" viewBox="0 0 24 24">
    <title>Auto</title>
    <path d="M11.5,7v3h5.69L15.83,7.28A.5.5,0,0,0,15.38,7Zm-1,0H7.12a.51.51,0,0,0-.45.28L5.31,10H10.5ZM11,6h4.38a1.49,1.49,0,0,1,1.34.83L18.31,10H22a2,2,0,0,1,2,2v2.5A1.5,1.5,0,0,1,22.5,16H22a2.5,2.5,0,0,1-4.9,0H8a2.5,2.5,0,0,1-4.9,0H.5a.5.5,0,0,1,0-1H1V12a2,2,0,0,1,2-2H4.19L5.78,6.83A1.49,1.49,0,0,1,7.12,6H11a.5.5,0,0,1,.5.5V7Zm7,5H3a1,1,0,0,0-1,1v3h1A2.5,2.5,0,0,1,8,15h9.1A2.5,2.5,0,0,1,22,15h.55a.5.5,0,0,0,.5-.5V12a1,1,0,0,0-1-1Zm1.5,6A1.5,1.5,0,1,0,18,15.5,1.5,1.5,0,0,0,19.5,17Zm-14,0A1.5,1.5,0,1,0,4,15.5,1.5,1.5,0,0,0,5.5,17Z"/>
  </symbol>
  <symbol id="icon-datetime" viewBox="0 0 24 24">
    <title>Datum und Uhrzeit</title>
    <path d="M1,7H20V3.5a.5.5,0,0,0-.5-.5H16V5.5a.5.5,0,0,1-1,0V3H6V5.5a.5.5,0,0,1-1,0V3H1.5a.5.5,0,0,0-.5.5ZM1,8v9.5a.5.5,0,0,0,.5.5h8a.5.5,0,0,1,0,1h-8A1.5,1.5,0,0,1,0,17.5V3.5A1.5,1.5,0,0,1,1.5,2H5V.5a.5.5,0,0,1,1,0V2h9V.5a.5.5,0,0,1,1,0V2h3.5A1.5,1.5,0,0,1,21,3.5V10a.5.5,0,0,1-1,0V8ZM17.5,24A6.5,6.5,0,1,1,24,17.5,6.5,6.5,0,0,1,17.5,24Zm0-1A5.5,5.5,0,1,0,12,17.5,5.5,5.5,0,0,0,17.5,23Zm2-6a.5.5,0,0,1,0,1h-2a.5.5,0,0,1-.5-.5v-3a.5.5,0,0,1,1,0V17Z"/>
  </symbol>
  <symbol id="icon-handshake" viewBox="0 0 24 24">
    <title>Abmachung</title>
    <path d="M14.71,15H15a1,1,0,0,0,1-1,1.09,1.09,0,0,0-.19-.6l-3-3.82-1.73.57a1.69,1.69,0,0,1-1.48-3,1.66,1.66,0,0,0-1.31,0L4,8.83V14H6a.52.52,0,0,1,.37.16l3.6,4a.87.87,0,0,0,1.53-.57V17.2l-.85-.85a.5.5,0,0,1,0-.71h0a.5.5,0,0,1,.7,0l.93.93h.08a1.18,1.18,0,0,0,1.54-.64v0a.72.72,0,0,0,.07-.25l-1.33-1.34a.5.5,0,0,1,0-.71h0a.5.5,0,0,1,.7,0Zm5.41.08-5.19,1a2.21,2.21,0,0,1-2.43,1.61,1.87,1.87,0,0,1-1.91,1.83h0a1.85,1.85,0,0,1-1.37-.65L5.78,15H3.91A1.49,1.49,0,0,1,2.5,16H.5a.5.5,0,0,1,0-1h2a.5.5,0,0,0,.5-.5v-7A.5.5,0,0,0,2.5,7H.5a.5.5,0,0,1,0-1h2A1.5,1.5,0,0,1,4,7.5v.26L7.93,6.18a2.64,2.64,0,0,1,2.57.35l.12.1,2.65-1.32a2.88,2.88,0,0,1,2.3-.13l4.58,1.66A1.49,1.49,0,0,1,21.5,6h2a.5.5,0,0,1,0,1h-2a.5.5,0,0,0-.5.5v7a.5.5,0,0,0,.5.5h2a.5.5,0,0,1,0,1h-2A1.49,1.49,0,0,1,20.12,15.08ZM20,7.85,15.23,6.12a2,2,0,0,0-1.52.08L10.26,7.93a.68.68,0,0,0,.52,1.26h0L14.34,8a.52.52,0,0,1,.32,1l-.83.27L16.6,12.8a2,2,0,0,1,.28,1.88l3.12-.6Z"/>
  </symbol>
  <symbol id="icon-crossroad" viewBox="0 0 24 24">
    <title>Wegweiser</title>
    <path d="M11.19,10.5v-2h-7a.5.5,0,0,1-.5-.5V2a.5.5,0,0,1,.5-.5h7V.5a.5.5,0,0,1,1,0v1h8.5a.47.47,0,0,1,.35.15l2.47,2.47a1.24,1.24,0,0,1,0,1.76h0L21,8.35a.47.47,0,0,1-.35.15h-8.5v2h8.5a.5.5,0,0,1,.5.5v6a.5.5,0,0,1-.5.5h-8.5V23a.5.5,0,0,1-1,0V17.5h-7a.51.51,0,0,1-.36-.15L1.37,14.88a1.24,1.24,0,0,1,0-1.76h0l2.47-2.47a.47.47,0,0,1,.35-.15ZM22.81,5.18a.27.27,0,0,0,0-.36L20.48,2.5H4.69v5H20.48ZM2.07,13.82a.27.27,0,0,0,0,.36h0L4.4,16.5H20.19v-5H4.4Z"/>
  </symbol>
  <symbol id="icon-agreement" viewBox="0 0 24 24">
    <title>Vetrag</title>
    <path d="M14.26,1H4A2.5,2.5,0,0,0,1.5,3.5V23H4a.5.5,0,0,1,0,1H1.5a1,1,0,0,1-1-1V3.5A3.5,3.5,0,0,1,4,0H16.5c1.74,0,3,1.43,3,3.5A.5.5,0,0,1,19,4H14.5v9a.5.5,0,0,1-1,0V3A3,3,0,0,1,14.26,1ZM19.5,21.26l-3.24.65L14,23.73a1.15,1.15,0,0,1-1.56-.06L10.23,22H9.41A1.49,1.49,0,0,1,8,23H6a.5.5,0,0,1-.5-.5v-7A.5.5,0,0,1,6,15H8a1.48,1.48,0,0,1,1.33.81l2.33-1a2,2,0,0,1,.73-.14,2,2,0,0,1,1.17.39l1.73-.84a2.17,2.17,0,0,1,1.71-.1l3.09,1.18A1.51,1.51,0,0,1,21,15h2a.5.5,0,0,1,.5.5v7a.5.5,0,0,1-.5.5H21a1.5,1.5,0,0,1-1.5-1.5Zm0-1V16.5a1.24,1.24,0,0,1,0-.33l-2.89-1.1a1.18,1.18,0,0,0-.92,0l-1.85.9,0,0a.36.36,0,0,1-.12.08.7.7,0,0,0-.06,1,.71.71,0,0,0,.79.19l1.85-.76a.49.49,0,0,1,.65.27.49.49,0,0,1-.27.65h0l-.49.2,1.47,1.62a1.18,1.18,0,0,1,.1,1.31ZM9.5,21h.9a.51.51,0,0,1,.3.1l2.4,1.84a.19.19,0,0,0,.26,0l3.5-2.8a.18.18,0,0,0,.05-.22l-1.69-1.86-.39.16a1.7,1.7,0,0,1-2.21-.94,1.74,1.74,0,0,1,.13-1.54,1,1,0,0,0-.71,0L9.5,16.83Zm-3,1H8a.5.5,0,0,0,.5-.5v-5A.5.5,0,0,0,8,16H6.5Zm16,0V16H21a.5.5,0,0,0-.5.5v5a.5.5,0,0,0,.5.5ZM4,5A.5.5,0,0,1,4,4h7a.5.5,0,0,1,0,1ZM4,8A.5.5,0,0,1,4,7h7a.5.5,0,0,1,0,1Zm0,3a.5.5,0,0,1,0-1H7.5a.5.5,0,0,1,0,1ZM18.47,3a2,2,0,0,0-2-2,2,2,0,0,0-2,2Z"/>
  </symbol>
  <symbol id="icon-bus" viewBox="0 0 24 24">
    <title>Bus</title>
    <path d="M7.25,3.5a.75.75,0,1,1-.75-.75A.76.76,0,0,1,7.25,3.5ZM4,13.5H20V3a1.5,1.5,0,0,0-1.5-1.5H5.5A1.5,1.5,0,0,0,4,3Zm0,1V18a1.5,1.5,0,0,0,1.5,1.5h13A1.5,1.5,0,0,0,20,18V14.5Zm17-4V18a2.5,2.5,0,0,1-2,2.45V22a1.5,1.5,0,0,1-3,0V20.5H8V22a1.5,1.5,0,0,1-3,0V20.45A2.5,2.5,0,0,1,3,18V10.5H1.5A1.5,1.5,0,0,1,0,9V6A1.5,1.5,0,0,1,1.5,4.5H3V3A2.5,2.5,0,0,1,5.5.5h13A2.5,2.5,0,0,1,21,3V4.5h1.5A1.5,1.5,0,0,1,24,6V9a1.5,1.5,0,0,1-1.5,1.5Zm0-1h1.5A.5.5,0,0,0,23,9V6a.5.5,0,0,0-.5-.5H21ZM3,9.5v-4H1.5A.5.5,0,0,0,1,6V9a.5.5,0,0,0,.5.5Zm14,11V22a.5.5,0,0,0,1,0V20.5Zm-10,0H6V22a.5.5,0,0,0,1,0Zm-1.5-4a.5.5,0,0,1,0-1h2a.5.5,0,0,1,0,1Zm11,0a.5.5,0,0,1,0-1h2a.5.5,0,0,1,0,1ZM9,4A.5.5,0,0,1,9,3h5a.5.5,0,0,1,0,1Z"/>
  </symbol>
  <symbol id="icon-baby" viewBox="0 0 24 24">
    <title>Nachwuchs</title>
    <path d="M10.88,6.77A4.5,4.5,0,0,1,7,9a4.83,4.83,0,0,1-1.07-.14c.2.62.39,1.25.58,1.88.37,1.19.73,2.39,1.09,3.58a11.65,11.65,0,0,1-1.08,9.45.51.51,0,0,1-.69.17.5.5,0,0,1-.17-.68h0a10.64,10.64,0,0,0,1-8.64l-.36-1.23L5.56,11l0-.14C5.24,10,5,9.07,4.66,8.16a.5.5,0,0,1,.72-.59A3.45,3.45,0,0,0,10.2,5.91a3.43,3.43,0,0,0,.3-1.45A3.73,3.73,0,0,0,6.53,1L6.27,1C2,1.39,1.38,5.34,3.5,12.16a4.45,4.45,0,0,1,.12,2.5A2.78,2.78,0,0,1,.42,17a.5.5,0,0,1-.4-.58A.51.51,0,0,1,.58,16a1.8,1.8,0,0,0,2.06-1.51,3.55,3.55,0,0,0-.09-2C.26,5.1,1,.48,6.16,0A4.73,4.73,0,0,1,11.47,4.1v0l.25-.07a17.75,17.75,0,0,1,2.82-.41l-.08-.06-.08-.07a3.43,3.43,0,0,1-.85-2.18,1,1,0,0,1,1-1h.06a3.39,3.39,0,0,1,2.21.79l.08.08a6.07,6.07,0,0,1,.66,1.13,5.61,5.61,0,0,1,.67-1.13l.07-.08A3.33,3.33,0,0,1,20.43.28a1,1,0,0,1,1,1v.09a3.43,3.43,0,0,1-.85,2.18l-.08.07A7,7,0,0,1,19.8,4c.73.13,1.45.3,2.16.49a1,1,0,0,1,0,1.93c-.74.22-1.49.41-2.25.56l3.4,7.12a6.55,6.55,0,0,1-1.55,8.34l-.07.05a6.55,6.55,0,0,1-9.93-8.15l3.11-6.92a17.32,17.32,0,0,1-3.34-.52Zm.41-.91.34.11a15,15,0,0,0,3.77.51h.5a23.32,23.32,0,0,0,5.8-1h0a25.77,25.77,0,0,0-5.79-.9A16.51,16.51,0,0,0,12,5l-.5.15a5.73,5.73,0,0,1-.16.69ZM8.5,4.24a.75.75,0,0,1-1.5,0H7a.75.75,0,0,1,1.5,0Zm10.21,3a23.58,23.58,0,0,1-2.78.28h-.15l-3.3,7.34a5.56,5.56,0,0,0,8.4,6.94l.06-.06a5.56,5.56,0,0,0,1.31-7.1L18.71,7.2ZM14.53,1.28v0a2.42,2.42,0,0,0,.56,1.51,5,5,0,0,0,1.81.79,5,5,0,0,0-.83-1.8A2.39,2.39,0,0,0,14.53,1.28Zm5.94,0v0h0a2.37,2.37,0,0,0-1.51.52,5,5,0,0,0-.83,1.8,5,5,0,0,0,1.81-.79A2.44,2.44,0,0,0,20.47,1.3Z"/>
  </symbol>
  <symbol id="icon-echo" viewBox="0 0 24 24">
    <title>Bürgerecho</title>
    <path d="M6.47,20.24A8.06,8.06,0,0,1,3.65,19.1l-2.89,1a.51.51,0,0,1-.64-.31.58.58,0,0,1,0-.32l1-3a8,8,0,1,1,5.36,3.77ZM3.56,18.08a.48.48,0,0,1,.45.06,7,7,0,1,0-1.92-2,.5.5,0,0,1,.05.43l-.75,2.27ZM17,19.3a.5.5,0,0,1-.71,0h0a.5.5,0,0,1,0-.7,8.55,8.55,0,0,0,.52-12.08l0,0c-.14-.15-.28-.29-.43-.43a.5.5,0,0,1,0-.7.5.5,0,0,1,.71,0h0a9.54,9.54,0,0,1,.48,13.48C17.36,19,17.21,19.14,17,19.3Zm2.49,3.2a.5.5,0,0,1-.71,0h0a.49.49,0,0,1,0-.69h0a13.06,13.06,0,0,0,.45-18.46h0c-.14-.16-.29-.3-.44-.45a.49.49,0,0,1,0-.68l0,0a.49.49,0,0,1,.69-.06h0A14.06,14.06,0,0,1,20,22a5.64,5.64,0,0,1-.47.5ZM8.7,16.36a.7.7,0,1,1-1.4,0h0a.7.7,0,0,1,1.4,0ZM7.5,8.66a.5.5,0,0,1,1,0v5.5a.5.5,0,0,1-1,0Z"/>
  </symbol>
  <symbol id="icon-facebook" viewBox="0 0 12 26">
    <title>Facebook</title>
    <path d="M2.56,25.17H7.12V12.66h3.41l.68-3.91H7.12V5.92c0-.91.59-1.87,1.43-1.87h2.33V.14H8v0C3.57.32,2.65,2.9,2.57,5.62h0V8.75H.29v3.91H2.56Z" fill="#fff" fill-rule="evenodd"/>
  </symbol>
  <symbol id="icon-twitter" viewBox="0 0 26 20">
    <title>Twitter</title>
    <path d="M24.45.44a8.07,8.07,0,0,1-3.12,1.11h0A5,5,0,0,0,12.7,5a5.19,5.19,0,0,0,.12,1.12h0A13.89,13.89,0,0,1,2.49.93,5,5,0,0,0,4,7.55,3.26,3.26,0,0,1,1.82,7a4.84,4.84,0,0,0,3.87,4.9A4,4,0,0,1,3.6,12c.16,1.47,2.23,3.4,4.48,3.4A8.92,8.92,0,0,1,.86,17.52a15,15,0,0,0,7.83,2.21,13.92,13.92,0,0,0,14-14.63V5a.15.15,0,0,0,0-.07,8.65,8.65,0,0,0,2.43-2.57,8.55,8.55,0,0,1-2.78.79A5.32,5.32,0,0,0,24.45.44" fill="#fff" fill-rule="evenodd"/>
  </symbol>
  <symbol id="icon-youtube" viewBox="0 0 32 24">
    <title>YouTube</title>
    <path d="M29,2.19C28.13,1.58,25.78.78,15.92.78,5.36.78,3.8,1.7,3.29,2,.62,3.61.36,10.73.34,12.18c0,1.9.34,8.24,3,9.81.5.3,2.06,1.23,12.63,1.23,9.87,0,12.22-.81,13.06-1.41,2.28-1.64,2.54-7.29,2.55-9.66C31.52,10.25,31.32,3.88,29,2.19ZM21,12.69l-6.81,4.76a.82.82,0,0,1-1.3-.64V7.29a.82.82,0,0,1,1.3-.64L21,11.41a.75.75,0,0,1,.34.64.76.76,0,0,1-.34.64Z" fill="#fff"/>
  </symbol>
  <symbol id="icon-instagram" viewBox="0 0 30 30">
    <title>Instagram</title>
    <path d="M24.81,7A1.8,1.8,0,1,1,23,5.19,1.8,1.8,0,0,1,24.81,7ZM15,20a5,5,0,1,1,5-5A5,5,0,0,1,15,20ZM15,7.3A7.7,7.7,0,1,0,22.7,15,7.7,7.7,0,0,0,15,7.3Zm0-4.6c4,0,4.48,0,6.06.09a8.3,8.3,0,0,1,2.79.52,4.5,4.5,0,0,1,1.72,1.12,4.5,4.5,0,0,1,1.12,1.72,8.3,8.3,0,0,1,.52,2.79c.07,1.58.09,2.05.09,6.06s0,4.48-.09,6.06a8.3,8.3,0,0,1-.52,2.79,5,5,0,0,1-2.84,2.84,8.3,8.3,0,0,1-2.79.52c-1.58.07-2,.09-6.06.09s-4.48,0-6.06-.09a8.3,8.3,0,0,1-2.79-.52,4.5,4.5,0,0,1-1.72-1.12,4.5,4.5,0,0,1-1.12-1.72,8.3,8.3,0,0,1-.52-2.79C2.72,19.48,2.7,19,2.7,15s0-4.48.09-6.06a8.3,8.3,0,0,1,.52-2.79A4.5,4.5,0,0,1,4.43,4.43,4.5,4.5,0,0,1,6.15,3.31a8.3,8.3,0,0,1,2.79-.52C10.52,2.72,11,2.7,15,2.7ZM15,0c-4.07,0-4.58,0-6.18.09a11,11,0,0,0-3.65.7A7.23,7.23,0,0,0,2.52,2.52,7.23,7.23,0,0,0,.79,5.17a11,11,0,0,0-.7,3.65C0,10.42,0,10.93,0,15s0,4.58.09,6.18a11,11,0,0,0,.7,3.65,7.23,7.23,0,0,0,1.73,2.65,7.23,7.23,0,0,0,2.65,1.73,11,11,0,0,0,3.65.7c1.6.07,2.11.09,6.18.09s4.58,0,6.18-.09a11,11,0,0,0,3.65-.7,7.7,7.7,0,0,0,4.38-4.38,11,11,0,0,0,.7-3.65C30,19.58,30,19.07,30,15s0-4.58-.09-6.18a11,11,0,0,0-.7-3.65,7.23,7.23,0,0,0-1.73-2.65A7.23,7.23,0,0,0,24.83.79a11,11,0,0,0-3.65-.7C19.58,0,19.07,0,15,0Z" fill="#e72b78"/>
  </symbol>
  <symbol id="icon-flickr" viewBox="0 0 28 12">
    <title>Flickr</title>
    <path d="M28,6a6,6,0,1,1-6-6,6,6,0,0,1,6,6" fill="#ff007f"/>
    <path d="M12,6A6,6,0,1,1,6,0a6,6,0,0,1,6,6" fill="#0960d5"/>
  </symbol>
  <symbol id="icon-down" viewBox="0 0 16 10">
    <title>nach unten</title>
    <polygon points="16 2 14.59 0.59 8 7.17 1.41 0.59 0 2 8 10 16 2" fill="#fff"/>
  </symbol>
  <symbol id="icon-panorama" viewBox="0 0 24 24">
    <title>panorama</title>
    <path d="M16.82,15.09h0a.49.49,0,0,1-.49.45h-.06a.5.5,0,0,1,.11-1,.52.52,0,0,1,.44.55ZM23.88,12A11.91,11.91,0,0,1,12,23.93h0A11.9,11.9,0,0,1,.11,12.08s0,0,0,0,0,0,0,0a11.89,11.89,0,0,1,23.77,0ZM22.65,9.8a10.93,10.93,0,0,0-8.44-8.42.49.49,0,0,1-.14.52.48.48,0,0,1-.7,0,.5.5,0,0,1,0-.64A11.92,11.92,0,0,0,12,1.15c-1.37,0-2.85,2.37-3.56,6.12A28.83,28.83,0,0,1,12,7.05a29.37,29.37,0,0,1,3.6.22.58.58,0,0,1-.05-.14.48.48,0,0,1,.39-.58.49.49,0,0,1,.59.39.52.52,0,0,1-.15.45A13.31,13.31,0,0,1,22.65,9.8ZM9.76,1.39A10.89,10.89,0,0,0,1.34,9.8a12.9,12.9,0,0,1,6-2.37A12.85,12.85,0,0,1,9.76,1.39ZM1.33,14.26a10.92,10.92,0,0,0,8.43,8.43,13,13,0,0,1-2.41-6.26.51.51,0,0,1-.35.15H6.91a.51.51,0,0,1-.4-.59.49.49,0,0,1,.59-.39l.13.05A27.47,27.47,0,0,1,7,12a28.71,28.71,0,0,1,.22-3.56C3.47,9.19,1.11,10.67,1.11,12a10.39,10.39,0,0,0,.09,1.37.49.49,0,0,1,.64,0,.5.5,0,0,1,0,.71.54.54,0,0,1-.37.16A.51.51,0,0,1,1.33,14.26ZM14.21,22.7a10.91,10.91,0,0,0,8.44-8.45.41.41,0,0,1-.16,0,.48.48,0,0,1-.36-.16.5.5,0,0,1,0-.71h0a.5.5,0,0,1,.64,0A11.92,11.92,0,0,0,22.88,12h0c0-1.89-4.47-4-10.89-4a27,27,0,0,0-3.73.26A26.85,26.85,0,0,0,8,12c0,6.41,2.1,10.87,4,10.89h0a10,10,0,0,0,1.35-.1.5.5,0,0,1,0-.64.49.49,0,0,1,.7,0A.5.5,0,0,1,14.21,22.7Zm2.27-10.16a.5.5,0,0,1,.49.51h0a.51.51,0,0,1-.51.48h0a.5.5,0,0,1,0-1Zm-.16-3a.49.49,0,0,1-.49-.44.5.5,0,1,1,.55.44Zm.13,1a.5.5,0,1,1,0,1h0a.5.5,0,0,1,0-1ZM14.83,3.71A.5.5,0,1,1,15.28,3h0a.5.5,0,0,1-.23.67A.44.44,0,0,1,14.83,3.71Zm1.3,12.83a.5.5,0,0,1-.1,1h-.09a.5.5,0,1,1,.19-1ZM15.05,20.4a.5.5,0,0,1-.22,1,.54.54,0,0,1-.21-.05.5.5,0,0,1-.24-.67h0A.5.5,0,0,1,15.05,20.4Zm.65-1.9a.51.51,0,0,1,.33.63.5.5,0,0,1-.48.35l-.14,0a.5.5,0,0,1,.29-1ZM15.07,5.23a.5.5,0,0,1,.33-.62.5.5,0,1,1,.29,1l-.14,0A.51.51,0,0,1,15.07,5.23ZM3.39,14.43a.5.5,0,0,1-.21,1A.42.42,0,0,1,3,15.33a.5.5,0,0,1-.23-.67A.49.49,0,0,1,3.39,14.43Zm17.21,0a.5.5,0,0,1,.44.9.59.59,0,0,1-.22.05.5.5,0,0,1-.45-.29A.49.49,0,0,1,20.6,14.43Zm-1.8.69a.5.5,0,0,1,.29,1h0l-.14,0a.49.49,0,0,1-.48-.36A.5.5,0,0,1,18.8,15.12Zm-13.6,0a.5.5,0,0,1-.15,1l-.14,0a.5.5,0,1,1,.29-1ZM15,16.87a.5.5,0,0,1-.5-.44.5.5,0,1,1,.55.44Zm1.89-1.28a.48.48,0,0,1,.58.39.5.5,0,0,1-.39.59H17a.5.5,0,0,1-.49-.4.51.51,0,0,1,.4-.59ZM13,16a.5.5,0,0,1,0,1h0a.5.5,0,1,1,0-1Zm-2,0a.5.5,0,0,1,0,1h0a.5.5,0,0,1,0-1Zm-2-.14a.5.5,0,0,1,0,1H8.94a.5.5,0,0,1-.45-.55A.51.51,0,0,1,9,15.87Z" fill="#fff"/>
  </symbol>
</svg>